PathFileType	4	(X/Y/Z)	Gait_latera_markers.trc
DataRate	CameraRate	NumFrames	NumMarkers	Units	OrigDataRate	OrigDataStartFrame	OrigNumFrames
100	100	8	38	m	100	1	96
Frame#	Time	RASI			RPSI			LPSI			LASI			RTROCH			RTHI			RTHI2			RTHI3			RTHI4			RKNE			RKNEM			RTIB			RTIB2			RTIB3			RTIB4			RANK			RANKM			RHEE			RTOE			RTOEL			RTOEM			LTROCH			LTHI			LTHI2			LTHI3			LTHI4			LKNE			LKNEM			LTIB			LTIB2			LTIB3			LTIB4			LANK			LANKM			LHEE			LTOE			LTOEL			LTOEM
		X1	Y1	Z1	X2	Y2	Z2	X3	Y3	Z3	X4	Y4	Z4	X5	Y5	Z5	X6	Y6	Z6	X7	Y7	Z7	X8	Y8	Z8	X9	Y9	Z9	X10	Y10	Z10	X11	Y11	Z11	X12	Y12	Z12	X13	Y13	Z13	X14	Y14	Z14	X15	Y15	Z15	X16	Y16	Z16	X17	Y17	Z17	X18	Y18	Z18	X19	Y19	Z19	X20	Y20	Z20	X21	Y21	Z21	X22	Y22	Z22	X23	Y23	Z23	X24	Y24	Z24	X25	Y25	Z25	X26	Y26	Z26	X27	Y27	Z27	X28	Y28	Z28	X29	Y29	Z29	X30	Y30	Z30	X31	Y31	Z31	X32	Y32	Z32	X33	Y33	Z33	X34	Y34	Z34	X35	Y35	Z35	X36	Y36	Z36	X37	Y37	Z37	X38	Y38	Z38

1	0.000000	-0.331580	0.960179	-0.939645	-0.263971	1.002083	-1.124404	-0.167523	0.990733	-1.116908	-0.107006	0.971743	-0.928401	-0.386004	0.885824	-1.018515	-0.390598	0.774798	-1.049136	-0.381803	0.772474	-0.984436	-0.368367	0.689970	-0.982592	-0.376969	0.687560	-1.045777	-0.338916	0.537419	-1.064543	-0.224682	0.544457	-1.053565	-0.351317	0.407199	-1.120514	-0.330370	0.399101	-1.060695	-0.323674	0.311867	-1.073189	-0.346413	0.326462	-1.135007	-0.281840	0.109891	-1.166760	-0.219358	0.113242	-1.121795	-0.229363	0.058990	-1.216243	-0.317673	0.056687	-0.993772	-0.359261	0.041707	-1.062586	-0.259283	0.033519	-0.997650	-0.048093	0.900111	-0.999801	-0.033823	0.703445	-0.904837	-0.045685	0.725448	-0.847064	-0.053489	0.647124	-0.821846	-0.043378	0.620142	-0.880272	-0.062310	0.546593	-0.832819	-0.166116	0.570650	-0.809263	-0.062398	0.322213	-0.836594	-0.067662	0.338398	-0.773660	-0.080713	0.252619	-0.763309	-0.077273	0.241307	-0.825307	-0.104235	0.106930	-0.790961	-0.165233	0.146313	-0.746177	-0.167720	0.059874	-0.822420	-0.076452	0.104976	-0.610117	-0.042058	0.068973	-0.662812	-0.131046	0.098909	-0.611647
2	0.010000	-0.332418	0.958580	-0.929112	-0.263695	1.000553	-1.113505	-0.167273	0.988933	-1.105307	-0.107895	0.969605	-0.916420	-0.386672	0.884678	-1.008724	-0.391243	0.774355	-1.041031	-0.382839	0.771227	-0.976288	-0.369365	0.688579	-0.975284	-0.377547	0.687027	-1.038623	-0.340168	0.537527	-1.059756	-0.226778	0.543637	-1.047649	-0.351110	0.406978	-1.116838	-0.330579	0.399108	-1.056653	-0.324002	0.311579	-1.070574	-0.346455	0.326892	-1.132229	-0.281602	0.110475	-1.166168	-0.219195	0.113444	-1.121114	-0.229245	0.059164	-1.215997	-0.317878	0.057203	-0.994145	-0.359187	0.042156	-1.063015	-0.258946	0.033426	-0.997978	-0.048586	0.898017	-0.987882	-0.035941	0.700833	-0.896285	-0.047565	0.721208	-0.837526	-0.056653	0.642063	-0.813700	-0.046045	0.616000	-0.871541	-0.066523	0.543383	-0.823862	-0.171738	0.565068	-0.804952	-0.064429	0.319199	-0.817546	-0.068845	0.339040	-0.755435	-0.080781	0.253856	-0.740059	-0.078886	0.239699	-0.802329	-0.103176	0.106240	-0.758342	-0.164148	0.148013	-0.715574	-0.166052	0.057801	-0.787408	-0.076817	0.113600	-0.576895	-0.041828	0.074388	-0.626818	-0.131425	0.108855	-0.578799
3	0.020000	-0.333126	0.956941	-0.918517	-0.263239	0.998894	-1.102545	-0.166824	0.986852	-1.093518	-0.108674	0.967454	-0.904368	-0.387351	0.883590	-0.999053	-0.391681	0.773737	-1.032723	-0.383941	0.769826	-0.968026	-0.370451	0.687135	-0.967885	-0.378098	0.686348	-1.031250	-0.340141	0.536769	-1.053780	-0.225887	0.543144	-1.040690	-0.351131	0.407189	-1.112791	-0.330959	0.398115	-1.052874	-0.324183	0.311259	-1.067663	-0.346252	0.326779	-1.129510	-0.281315	0.111153	-1.165518	-0.218974	0.113675	-1.120321	-0.229000	0.059518	-1.215774	-0.317969	0.057025	-0.994069	-0.359177	0.042196	-1.063004	-0.257734	0.032909	-0.998098	-0.049084	0.895648	-0.975434	-0.038263	0.696932	-0.887141	-0.049383	0.716794	-0.828029	-0.059330	0.637259	-0.805192	-0.048621	0.611559	-0.863022	-0.069603	0.539484	-0.815644	-0.176078	0.561737	-0.797201	-0.066267	0.317071	-0.799209	-0.069849	0.339934	-0.738183	-0.080641	0.255652	-0.718065	-0.078974	0.238336	-0.778678	-0.101232	0.107371	-0.727434	-0.162933	0.150574	-0.687117	-0.164792	0.057395	-0.753847	-0.076947	0.123715	-0.546026	-0.041328	0.082166	-0.593526	-0.131682	0.119032	-0.548315
4	0.030000	-0.333930	0.955274	-0.907806	-0.262733	0.997074	-1.091486	-0.166181	0.984573	-1.081536	-0.109482	0.965211	-0.892185	-0.387865	0.882295	-0.989196	-0.392085	0.773005	-1.024256	-0.384978	0.768398	-0.959560	-0.371551	0.685706	-0.960179	-0.378598	0.685674	-1.023704	-0.340063	0.535886	-1.047344	-0.226176	0.542537	-1.033715	-0.351152	0.407322	-1.108293	-0.331351	0.397523	-1.048732	-0.324454	0.310900	-1.064463	-0.345793	0.327270	-1.125610	-0.281051	0.111866	-1.164870	-0.218690	0.113943	-1.119376	-0.228764	0.059874	-1.215458	-0.318005	0.056836	-0.993939	-0.359125	0.042234	-1.062999	-0.258988	0.033039	-0.997424	-0.049523	0.893149	-0.962676	-0.039738	0.692863	-0.877894	-0.051619	0.712011	-0.818987	-0.061912	0.632500	-0.796962	-0.050700	0.607213	-0.854835	-0.072883	0.535998	-0.807035	-0.179533	0.558881	-0.788897	-0.068364	0.315711	-0.781406	-0.071194	0.341322	-0.721516	-0.080793	0.257870	-0.697142	-0.079888	0.237459	-0.757169	-0.099964	0.108964	-0.698428	-0.161728	0.153294	-0.660836	-0.162591	0.057085	-0.722788	-0.077628	0.134467	-0.517521	-0.040871	0.090886	-0.562583	-0.132273	0.129081	-0.520274
5	0.040000	-0.334775	0.953496	-0.897060	-0.261986	0.995063	-1.080296	-0.165593	0.982143	-1.069531	-0.110419	0.962812	-0.879899	-0.388337	0.881088	-0.979248	-0.392489	0.772147	-1.015608	-0.385986	0.766883	-0.950902	-0.372666	0.684269	-0.952225	-0.379029	0.684791	-1.015737	-0.341243	0.535588	-1.041186	-0.227053	0.541448	-1.026010	-0.351147	0.407407	-1.103340	-0.331581	0.396755	-1.043870	-0.324603	0.310317	-1.060906	-0.346188	0.328059	-1.122092	-0.280798	0.112827	-1.164082	-0.218433	0.114170	-1.118399	-0.228357	0.060459	-1.215048	-0.318087	0.056554	-0.993838	-0.359046	0.042245	-1.062926	-0.258773	0.032776	-0.997650	-0.049956	0.890499	-0.949559	-0.040820	0.689329	-0.868673	-0.053324	0.707954	-0.809546	-0.064121	0.627885	-0.788718	-0.051961	0.603218	-0.846538	-0.075900	0.532891	-0.798148	-0.183695	0.556093	-0.780578	-0.069641	0.314742	-0.764078	-0.072764	0.342761	-0.705087	-0.081793	0.260710	-0.676848	-0.080521	0.238059	-0.737130	-0.099195	0.111500	-0.671458	-0.161917	0.156990	-0.635522	-0.160909	0.057174	-0.694165	-0.078785	0.144992	-0.491547	-0.041046	0.100281	-0.535019	-0.133192	0.138382	-0.494261
6	0.050000	-0.335717	0.951712	-0.886318	-0.261236	0.993032	-1.069124	-0.164829	0.979683	-1.057479	-0.111380	0.960329	-0.867493	-0.390554	0.880865	-0.971043	-0.392794	0.771138	-1.006671	-0.387737	0.765305	-0.942392	-0.373643	0.682741	-0.943919	-0.379430	0.682700	-1.006622	-0.342102	0.535054	-1.034367	-0.227473	0.539580	-1.017139	-0.351107	0.407438	-1.097777	-0.331785	0.395771	-1.038531	-0.324737	0.309816	-1.057046	-0.346059	0.328364	-1.117905	-0.280438	0.113745	-1.163176	-0.218120	0.114564	-1.117190	-0.227945	0.061083	-1.214639	-0.318163	0.056319	-0.993669	-0.358946	0.042299	-1.062851	-0.259041	0.032264	-0.997114	-0.050495	0.887711	-0.936339	-0.041730	0.686055	-0.858844	-0.055725	0.703892	-0.800086	-0.066178	0.623958	-0.779902	-0.052536	0.600894	-0.838577	-0.078256	0.530254	-0.788138	-0.186844	0.553541	-0.771744	-0.070360	0.313705	-0.746956	-0.074580	0.344339	-0.689259	-0.083391	0.262430	-0.657958	-0.080588	0.237157	-0.716248	-0.099379	0.113861	-0.646801	-0.162579	0.159686	-0.612433	-0.161432	0.059233	-0.668510	-0.079231	0.154640	-0.468044	-0.040644	0.109177	-0.509420	-0.133723	0.146726	-0.470408
7	0.060000	-0.336821	0.950219	-0.875478	-0.260524	0.990959	-1.057847	-0.164132	0.977269	-1.045334	-0.112402	0.957859	-0.855127	-0.391192	0.879346	-0.961056	-0.393136	0.770058	-0.997573	-0.388583	0.763697	-0.933072	-0.374679	0.681515	-0.935446	-0.379475	0.681600	-0.997750	-0.342355	0.534007	-1.026542	-0.227968	0.538532	-1.008478	-0.351467	0.407911	-1.092066	-0.331958	0.394842	-1.032746	-0.324968	0.309233	-1.053029	-0.345691	0.328172	-1.113278	-0.280143	0.115004	-1.162143	-0.217842	0.115051	-1.115979	-0.227531	0.061730	-1.214073	-0.318250	0.056050	-0.993526	-0.358856	0.042357	-1.062749	-0.258991	0.032260	-0.996935	-0.051033	0.885004	-0.923209	-0.042655	0.683058	-0.848014	-0.057556	0.700891	-0.789573	-0.068586	0.620829	-0.769616	-0.054249	0.597877	-0.828193	-0.080237	0.528143	-0.777172	-0.188817	0.551171	-0.762039	-0.071085	0.312565	-0.730329	-0.076236	0.345095	-0.673964	-0.084860	0.264231	-0.640083	-0.081329	0.237129	-0.697444	-0.100358	0.115345	-0.624766	-0.163153	0.162487	-0.591307	-0.162776	0.060274	-0.643848	-0.079010	0.162158	-0.447209	-0.040646	0.115677	-0.486889	-0.133664	0.154426	-0.449147
8	0.070000	-0.337847	0.948454	-0.864789	-0.259862	0.988927	-1.046545	-0.163677	0.975155	-1.033468	-0.113455	0.955458	-0.842739	-0.391833	0.877762	-0.951235	-0.393506	0.768977	-0.988289	-0.389481	0.762054	-0.923925	-0.375574	0.679902	-0.926432	-0.379645	0.680650	-0.988859	-0.341720	0.532431	-1.017787	-0.227711	0.538177	-0.999935	-0.351194	0.407535	-1.085558	-0.332211	0.393905	-1.026656	-0.325137	0.308771	-1.048509	-0.345701	0.328683	-1.108316	-0.279937	0.116284	-1.161015	-0.217632	0.115704	-1.114611	-0.227215	0.062785	-1.213480	-0.318743	0.055668	-0.994076	-0.358771	0.042405	-1.062640	-0.258569	0.032238	-0.996778	-0.051644	0.882251	-0.910151	-0.043718	0.680714	-0.835912	-0.059424	0.698942	-0.777794	-0.071696	0.619292	-0.757651	-0.056575	0.596075	-0.816046	-0.082001	0.526705	-0.765478	-0.190182	0.548749	-0.752143	-0.071921	0.311574	-0.714988	-0.077592	0.345151	-0.659255	-0.086243	0.264924	-0.623672	-0.082036	0.236698	-0.680376	-0.101761	0.115804	-0.605240	-0.163603	0.164993	-0.572595	-0.164213	0.059947	-0.620844	-0.078461	0.167064	-0.428989	-0.041099	0.118493	-0.467531	-0.133222	0.160454	-0.430469
